<svg width="149" height="33" viewBox="0 0 149 33" fill="none" xmlns="http://www.w3.org/2000/svg">
<path d="M147.848 15.1942H142.844L141.129 23.2123C141.101 23.3939 141.066 23.5894 141.024 23.799C140.982 24.0085 140.942 24.218 140.907 24.4276C140.872 24.6371 140.842 24.835 140.814 25.0236C140.789 25.1776 140.775 25.3332 140.772 25.4892C140.772 26.0448 140.912 26.4561 141.191 26.7231C141.471 26.9901 141.931 27.1228 142.572 27.1212C142.786 27.1168 142.999 27.0958 143.21 27.0583C143.469 27.0164 143.735 26.9606 144.006 26.8907C144.279 26.8209 144.542 26.7487 144.791 26.6719C145.04 26.5951 145.256 26.5275 145.398 26.4717L144.372 31.3607C144.067 31.4746 143.756 31.5717 143.44 31.6517C143.077 31.7495 142.679 31.8403 142.246 31.9241C141.813 32.0079 141.363 32.0778 140.896 32.1337C140.441 32.1888 139.983 32.2168 139.525 32.2175C138.621 32.2431 137.72 32.1051 136.866 31.8101C136.213 31.5775 135.628 31.1891 135.159 30.6786C134.732 30.195 134.424 29.6176 134.261 28.993C134.079 28.3096 133.99 27.6048 133.998 26.8977C133.998 26.6742 134.012 26.4158 134.039 26.1224C134.067 25.8291 134.107 25.5311 134.156 25.2238C134.205 24.9165 134.261 24.6045 134.324 24.2925C134.386 23.9806 134.445 23.6896 134.5 23.4241L136.216 15.1756H132.92L134.084 10.2865H137.245L138.335 5.26244L145.305 3.54429L143.908 10.2958H149L147.848 15.1942Z" fill="#28A2DA"/>
<path d="M130.266 31.5656C130.014 31.6378 129.725 31.7053 129.397 31.7751C129.069 31.845 128.72 31.9125 128.35 31.9753C127.979 32.0382 127.598 32.0871 127.199 32.122C126.801 32.1569 126.408 32.1732 126.017 32.1732C125.202 32.1928 124.391 32.0691 123.619 31.8077C123.001 31.592 122.44 31.2413 121.975 30.781C121.541 30.3387 121.215 29.8015 121.023 29.2119C120.815 28.566 120.713 27.8906 120.72 27.212C120.72 26.9047 120.737 26.5625 120.771 26.1853C120.806 25.8081 120.851 25.4147 120.909 25.0026C120.967 24.5905 121.03 24.1738 121.107 23.7478C121.184 23.3217 121.263 22.9143 121.34 22.5232C121.395 22.2903 121.491 21.848 121.624 21.2148C121.756 20.5815 121.91 19.8505 122.089 19.0263C122.268 18.2022 122.448 17.3338 122.643 16.4188C122.839 15.5039 123.023 14.6355 123.197 13.8136C123.372 12.9918 123.526 12.2608 123.663 11.6252C123.8 10.9896 123.896 10.5543 123.945 10.3168H130.645L128.084 22.3765C127.972 22.8654 127.854 23.4133 127.728 24.0201C127.612 24.5387 127.549 25.0675 127.539 25.5986C127.539 26.1294 127.707 26.4996 128.042 26.7091C128.392 26.9239 128.796 27.0331 129.206 27.0234C129.576 27.023 129.944 26.9848 130.305 26.9093C130.652 26.839 130.992 26.7369 131.32 26.6044C131.139 27.4425 130.964 28.2697 130.796 29.0861C130.629 29.9025 130.452 30.729 130.266 31.5656ZM132.445 3.39528C132.453 3.90175 132.346 4.40342 132.13 4.862C131.925 5.28791 131.637 5.66862 131.283 5.98183C130.915 6.30192 130.488 6.54708 130.026 6.70355C129.524 6.87456 128.996 6.95956 128.466 6.95499C127.964 6.96229 127.465 6.88354 126.99 6.72218C126.563 6.57417 126.168 6.34666 125.826 6.05168C125.501 5.76977 125.238 5.42429 125.053 5.03661C124.862 4.63773 124.765 4.20058 124.769 3.75847C124.761 3.25377 124.865 2.75356 125.074 2.29408C125.271 1.86562 125.556 1.48331 125.91 1.17193C126.279 0.85751 126.706 0.617922 127.167 0.466504C127.679 0.291193 128.218 0.202289 128.759 0.203426C129.257 0.195743 129.753 0.274516 130.224 0.436238C130.65 0.584857 131.045 0.812303 131.388 1.10674C131.712 1.38878 131.975 1.73423 132.161 2.1218C132.353 2.52267 132.45 2.96242 132.445 3.40693V3.39528Z" fill="#28A2DA"/>
<path d="M121.102 0.503754H110.626L110.376 0.866941C110.144 1.20685 96.687 15.4666 96.6102 15.5528L104.943 32.2175H115.009L114.544 31.0534C114.351 30.5645 114.036 29.8893 113.612 29.0605C113.189 28.2317 112.709 27.3331 112.169 26.3413C111.629 25.3495 111.054 24.3228 110.446 23.2495C109.839 22.1763 109.271 21.1542 108.735 20.1857C108.2 19.2172 107.729 18.3232 107.313 17.5037C107.033 16.9589 106.807 16.4956 106.637 16.1068C106.947 15.7437 107.352 15.2873 107.853 14.7449C108.56 13.9689 109.363 13.1152 110.26 12.184C111.157 11.2527 112.104 10.271 113.1 9.23888C114.098 8.20985 115.05 7.2235 115.955 6.27983C116.859 5.33617 117.669 4.47398 118.383 3.69328C119.114 2.89707 119.64 2.29641 119.992 1.85872L121.102 0.503754Z" fill="black"/>
<path d="M105.306 0.503754H94.8292L94.5754 0.866941C94.3426 1.20685 80.886 15.4666 80.8115 15.5528L89.1416 32.2175H99.2177L98.7521 31.0534C98.5588 30.5645 98.2446 29.8893 97.8208 29.0605C97.3971 28.2317 96.9175 27.3331 96.3774 26.3413C95.8373 25.3495 95.2622 24.3228 94.6522 23.2495C94.0423 22.1763 93.4882 21.1542 92.9434 20.1857C92.3986 19.2172 91.9377 18.3232 91.5186 17.5037C91.2392 16.9589 91.0134 16.4956 90.8458 16.1068C91.1554 15.7437 91.5605 15.2873 92.0587 14.7449C92.768 13.9689 93.5704 13.1152 94.466 12.184C95.3616 11.2527 96.3114 10.2772 97.3156 9.2575C98.3152 8.22847 99.2658 7.24212 100.168 6.29846C101.069 5.35479 101.88 4.49261 102.598 3.71191C103.329 2.91569 103.855 2.31504 104.205 1.87735L105.306 0.503754Z" fill="black"/>
<path d="M79.0142 20.521C78.9863 20.5815 78.963 20.6467 78.9327 20.7072C78.6144 21.3609 78.2206 21.9751 77.7594 22.5371C77.1104 23.3809 76.2775 24.0657 75.3242 24.5393C74.4175 24.9802 73.4222 25.2088 72.414 25.2075C71.671 25.2193 70.9334 25.079 70.2465 24.7954C69.6288 24.5335 69.0781 24.1356 68.6355 23.6313C68.1532 23.0594 67.7934 22.3946 67.5785 21.6781C67.3066 20.7778 67.1754 19.8409 67.1897 18.9006C67.1877 18.1071 67.2477 17.3147 67.3689 16.5306C67.4945 15.7316 67.6773 14.9426 67.9161 14.1698C68.1476 13.4221 68.4388 12.6942 68.7868 11.9931C69.0957 11.3635 69.4804 10.774 69.9322 10.2376C70.6024 9.43364 71.4253 8.77052 72.3535 8.28668C73.216 7.83713 74.1746 7.60308 75.1472 7.60453C75.9187 7.59064 76.6849 7.73484 77.3985 8.02825C78.0266 8.29531 78.5844 8.70408 79.0282 9.22258C79.4794 9.76849 79.823 10.3949 80.0409 11.0688C81.6287 9.38322 84.0663 6.79435 86.271 4.44527C86.0522 4.18219 85.831 3.92144 85.5912 3.68164C84.382 2.46902 82.9257 1.53122 81.3214 0.932129C79.5932 0.296623 77.7637 -0.0189393 75.9225 0.000878699C74.7095 -0.0048614 73.4987 0.105844 72.3069 0.331472C71.2173 0.539043 70.1517 0.857318 69.1267 1.28135C68.1629 1.68224 67.2392 2.17333 66.3679 2.74807C65.5175 3.31261 64.719 3.95147 63.9815 4.65713C63.0464 5.57915 62.2164 6.60202 61.5067 7.70697C60.8026 8.80574 60.2091 9.97162 59.735 11.1875C59.2562 12.4169 58.8991 13.6903 58.6687 14.9893C58.4366 16.306 58.3197 17.6404 58.3195 18.9774C58.3049 20.8208 58.6089 22.6528 59.2182 24.3926C59.7885 26.0196 60.6862 27.5124 61.856 28.7788C63.0459 30.0391 64.4902 31.0318 66.0931 31.6913C67.8828 32.4147 69.7994 32.7717 71.7295 32.7413C73.0157 32.7488 74.2994 32.6279 75.5616 32.3804C76.6996 32.1524 77.8113 31.8084 78.8792 31.3537C79.888 30.9178 80.8453 30.3712 81.7335 29.7241C82.1991 29.3865 82.6414 29.0256 83.0698 28.6391L79.0142 20.521Z" fill="black"/>
<path d="M43.1122 0.503754L24.8225 32.2175H34.419L37.9484 25.5404H47.4542L48.3109 32.2175H56.9413L52.3945 0.503754H43.1122ZM46.7418 18.6631H41.3731L45.8454 10.3308L46.7418 18.6631Z" fill="black"/>
<path d="M25.6396 26.0014C26.2265 24.7091 26.5244 23.3045 26.5127 21.8853C26.5177 21.0436 26.3816 20.2071 26.1099 19.4105C25.8391 18.6272 25.4167 17.9049 24.8667 17.2849C24.2897 16.6441 23.6 16.1146 22.8319 15.7227L22.7528 15.6808C22.998 15.5784 23.2308 15.4689 23.4512 15.3525C24.377 14.8862 25.2157 14.264 25.9307 13.5133C26.6034 12.8014 27.1288 11.9635 27.4765 11.0478C27.8238 10.1148 27.9981 9.12625 27.991 8.13069C28.001 7.10157 27.812 6.08022 27.4346 5.12275C27.0406 4.15608 26.4136 3.30189 25.6094 2.63632C24.686 1.90171 23.6231 1.36232 22.485 1.05086C21.044 0.65963 19.5546 0.475415 18.0616 0.503754H6.75156L0 32.2175H12.9583C14.9195 32.2493 16.8749 31.9944 18.7624 31.4608C20.3034 31.021 21.7463 30.2908 23.0135 29.3096C24.1355 28.4274 25.0349 27.2943 25.6396 26.0014ZM14.1713 19.3243C15.3936 19.3243 16.2992 19.5711 16.8626 20.06C17.1271 20.2904 17.336 20.5776 17.4739 20.9001C17.6118 21.2226 17.675 21.5721 17.6588 21.9225C17.6637 22.4106 17.572 22.8949 17.3888 23.3473C17.2112 23.7729 16.9342 24.1497 16.5809 24.4462C16.1369 24.8081 15.6235 25.0751 15.0723 25.2308C14.2896 25.4524 13.4782 25.5559 12.665 25.5381H9.94575L11.2961 19.3243H14.1713ZM14.8208 12.6077H12.6883L13.871 7.18082H15.9663C16.5233 7.16853 17.0793 7.23197 17.6192 7.36939C17.9636 7.45831 18.286 7.61677 18.5668 7.83502C18.7699 7.99887 18.9251 8.2144 19.0161 8.45896C19.132 8.78214 19.1881 9.12376 19.1814 9.46704C19.1893 9.90754 19.0961 10.344 18.909 10.7428C18.7273 11.1223 18.4565 11.4522 18.1198 11.7044C17.7111 12.0029 17.251 12.2239 16.7625 12.3562C16.1304 12.5311 15.4766 12.615 14.8208 12.6053V12.6077Z" fill="black"/>
</svg>
