<svg width="74" height="36" viewBox="0 0 74 36" fill="none" xmlns="http://www.w3.org/2000/svg">
<g clip-path="url(#clip0_286_255)">
<path d="M56.2404 0H44.4612L44.1767 0.409771C43.907 0.791566 28.7782 16.8368 28.6992 16.9339L38.0726 35.6945H49.4011L48.8864 34.3912C48.671 33.8431 48.3174 33.0894 47.8356 32.1514C47.3538 31.2134 46.8194 30.2062 46.2109 29.0905C45.6025 27.9747 44.9595 26.8194 44.2738 25.6132C43.588 24.4069 42.9582 23.2664 42.3514 22.1573C41.7446 21.0481 41.2217 20.0607 40.7497 19.1408C40.4356 18.5269 40.1824 18.0052 39.9933 17.5807C40.3402 17.1742 40.7958 16.6607 41.3582 16.0502C42.1541 15.1813 43.0558 14.2197 44.0633 13.1653C45.0708 12.111 46.1364 11.0057 47.2601 9.84932C48.3838 8.69406 49.4527 7.58488 50.4667 6.52178C51.4808 5.45868 52.3913 4.48828 53.1982 3.61059C54.0204 2.71535 54.6124 2.03898 55.007 1.54693L56.2404 0Z" fill="#28A2DA"/>
<path d="M74.0008 0H62.2232L61.9404 0.409771C61.6773 0.791566 46.5468 16.8368 46.4629 16.9339L55.8362 35.6945H67.1648L66.6517 34.3912C66.4347 33.8431 66.0811 33.0894 65.6009 32.1514C65.1208 31.2134 64.5847 30.2062 63.9762 29.0905C63.3678 27.9747 62.7232 26.8194 62.0374 25.6132C61.3517 24.4069 60.7219 23.2664 60.1151 22.1573C59.5083 21.0481 58.9853 20.0607 58.515 19.1408C58.1993 18.5269 57.946 18.0052 57.7569 17.5807C58.1039 17.1742 58.5611 16.6607 59.1218 16.0502C59.9177 15.1813 60.82 14.2197 61.8286 13.1653C62.8372 12.111 63.9022 11.0057 65.0237 9.84932C66.1474 8.69406 67.2163 7.58488 68.2304 6.52178C69.2445 5.45868 70.1549 4.48828 70.9618 3.61059C71.784 2.71535 72.3777 2.03898 72.7707 1.54693L74.0008 0Z" fill="#28A2DA"/>
<path d="M24.1602 19.2049L22.6391 16.1588L24.8755 13.5949C24.9577 13.5011 24.9577 13.5011 26.7831 11.5625C27.7944 10.4878 29.4701 8.70723 31.3036 6.75546C31.2014 6.22434 31.0489 5.70416 30.8481 5.20195C30.4038 4.11284 29.6957 3.15143 28.7876 2.40432C27.875 1.64567 26.6959 1.03677 25.2817 0.617125C23.9036 0.207354 22.2329 0 20.3138 0H7.58418L0 35.6879H14.5698C17.0364 35.6879 19.2334 35.4 21.0966 34.8338C22.986 34.2579 24.5943 33.4449 25.877 32.4147C27.1379 31.4209 28.1488 30.1455 28.8288 28.6906C28.8403 28.6642 28.8485 28.6379 28.8584 28.6132L24.1602 19.2049ZM19.5557 25.7119C19.3553 26.1905 19.0435 26.6142 18.6464 26.9478C18.1475 27.3548 17.5704 27.6551 16.9509 27.8299C16.0708 28.079 15.1586 28.1954 14.2442 28.1755H11.1822L12.6984 21.1748H15.9347C17.3094 21.1748 18.3273 21.4546 18.9604 21.9976C19.564 22.5193 19.8567 23.2088 19.8567 24.1057C19.8629 24.656 19.7595 25.2021 19.5524 25.7119H19.5557ZM21.2725 11.5082C21.0671 11.9344 20.7626 12.3051 20.3845 12.5894C19.922 12.9299 19.4 13.1811 18.8453 13.3299C18.1354 13.5261 17.4012 13.6203 16.6648 13.6097H14.2672L15.5959 7.50424H17.959C18.5857 7.49021 19.2114 7.56163 19.8188 7.71653C20.2053 7.81245 20.5679 7.98664 20.8844 8.22834C21.112 8.41335 21.2867 8.65518 21.3909 8.92939C21.5199 9.2932 21.5823 9.6773 21.5751 10.0633C21.5844 10.5619 21.4798 11.0561 21.2692 11.5082H21.2725Z" fill="#0C0C0C"/>
</g>
<defs>
<clipPath id="clip0_286_255">
<rect width="74" height="35.6879" fill="white"/>
</clipPath>
</defs>
</svg>
