<?xml version="1.0" standalone="no"?>
<!DOCTYPE svg PUBLIC "-//W3C//DTD SVG 20010904//EN"
 "http://www.w3.org/TR/2001/REC-SVG-20010904/DTD/svg10.dtd">
<svg version="1.0" xmlns="http://www.w3.org/2000/svg"
 width="260.000000pt" height="260.000000pt" viewBox="0 0 260.000000 260.000000"
 preserveAspectRatio="xMidYMid meet">
<metadata>
Created by potrace 1.11, written by Peter Selinger 2001-2013
</metadata>
<g transform="translate(0.000000,260.000000) scale(0.100000,-0.100000)"
fill="#000000" stroke="none">
<path d="M0 1300 l0 -1300 1300 0 1300 0 0 1300 0 1300 -1300 0 -1300 0 0
-1300z m1065 385 c45 -23 64 -40 84 -76 l25 -46 -99 -107 c-55 -58 -101 -110
-103 -115 -2 -5 29 -73 67 -150 39 -77 71 -146 71 -151 0 -26 -99 -108 -156
-130 -54 -22 -77 -24 -286 -28 -265 -5 -241 -20 -207 131 11 50 45 207 74 347
30 140 59 279 65 308 l12 54 197 -4 c197 -3 198 -3 256 -33z m649 -7 c-43 -46
-282 -306 -322 -349 l-23 -27 29 -53 c16 -30 66 -125 111 -211 l81 -158 -130
0 -130 0 -111 221 -111 222 54 56 c30 31 114 120 187 199 l133 142 136 0 136
0 -40 -42z m444 33 c-1 -5 -86 -98 -188 -207 l-185 -197 105 -204 c58 -112
107 -208 108 -213 2 -6 -48 -10 -125 -10 l-128 0 -109 219 -110 219 35 39 c19
22 102 113 184 201 l150 162 133 0 c75 0 132 -4 130 -9z"/>
<path d="M790 1488 c-6 -29 -14 -61 -17 -70 -4 -16 3 -18 52 -18 49 0 60 4 86
29 57 57 26 111 -62 111 l-47 0 -12 -52z"/>
<path d="M721 1163 c-7 -32 -15 -69 -18 -82 -6 -23 -5 -23 71 -19 85 4 111 20
122 75 5 26 1 37 -19 57 -22 22 -35 26 -85 26 l-59 0 -12 -57z"/>
</g>
</svg>
